# MagicaVoxel @ Ephtracy

# group
o 

# material
mtllib flower_yellow.mtl
usemtl palette

# normals
vn -1 0 0
vn 1 0 0
vn 0 0 1
vn 0 0 -1
vn 0 -1 0
vn 0 1 0

# texcoords
vt 0.0332031 0.5
vt 0.0371094 0.5
vt 0.158203 0.5
vt 0.162109 0.5

# verts
v -0.1 0 0
v -0.1 0 -0.1
v -0.1 0.1 0
v -0.1 0.1 -0.1
v -0.1 0.3 0
v -0.1 0.3 -0.1
v -0.1 0.4 0
v -0.1 0.4 -0.1
v 0 0 0.1
v 0 0 0
v 0 0 -0.1
v 0 0 -0.2
v 0 0.1 0.1
v 0 0.1 0
v 0 0.1 -0.1
v 0 0.1 -0.2
v 0 0.3 0.1
v 0 0.3 0
v 0 0.3 -0.1
v 0 0.3 -0.2
v 0 0.4 0.1
v 0 0.4 0
v 0 0.4 -0.1
v 0 0.4 -0.2
v 0.1 0 0.1
v 0.1 0 0
v 0.1 0 -0.1
v 0.1 0 -0.2
v 0.1 0.1 0.1
v 0.1 0.1 0
v 0.1 0.1 -0.1
v 0.1 0.1 -0.2
v 0.1 0.3 0.1
v 0.1 0.3 0
v 0.1 0.3 -0.1
v 0.1 0.3 -0.2
v 0.1 0.4 0.1
v 0.1 0.4 0
v 0.1 0.4 -0.1
v 0.1 0.4 -0.2
v 0.2 0 0
v 0.2 0 -0.1
v 0.2 0.1 0
v 0.2 0.1 -0.1
v 0.2 0.3 0
v 0.2 0.3 -0.1
v 0.2 0.4 0
v 0.2 0.4 -0.1
v 0 0 0.1
v 0 0.1 0.1
v 0 0.3 0.1
v 0 0.4 0.1
v 0.1 0 0.1
v 0.1 0.1 0.1
v 0.1 0.3 0.1
v 0.1 0.4 0.1
v -0.1 0 0
v -0.1 0.1 0
v -0.1 0.3 0
v -0.1 0.4 0
v 0 0 0
v 0 0.1 0
v 0 0.3 0
v 0 0.4 0
v 0.1 0 0
v 0.1 0.1 0
v 0.1 0.3 0
v 0.1 0.4 0
v 0.2 0 0
v 0.2 0.1 0
v 0.2 0.3 0
v 0.2 0.4 0
v -0.1 0 -0.1
v -0.1 0.1 -0.1
v -0.1 0.3 -0.1
v -0.1 0.4 -0.1
v 0 0 -0.1
v 0 0.1 -0.1
v 0 0.3 -0.1
v 0 0.4 -0.1
v 0.1 0 -0.1
v 0.1 0.1 -0.1
v 0.1 0.3 -0.1
v 0.1 0.4 -0.1
v 0.2 0 -0.1
v 0.2 0.1 -0.1
v 0.2 0.3 -0.1
v 0.2 0.4 -0.1
v 0 0 -0.2
v 0 0.1 -0.2
v 0 0.3 -0.2
v 0 0.4 -0.2
v 0.1 0 -0.2
v 0.1 0.1 -0.2
v 0.1 0.3 -0.2
v 0.1 0.4 -0.2
v 0 0 0.1
v 0.1 0 0.1
v -0.1 0 0
v 0 0 0
v 0.1 0 0
v 0.2 0 0
v -0.1 0 -0.1
v 0 0 -0.1
v 0.1 0 -0.1
v 0.2 0 -0.1
v 0 0 -0.2
v 0.1 0 -0.2
v 0 0.3 0.1
v 0.1 0.3 0.1
v -0.1 0.3 0
v 0 0.3 0
v 0.1 0.3 0
v 0.2 0.3 0
v -0.1 0.3 -0.1
v 0 0.3 -0.1
v 0.1 0.3 -0.1
v 0.2 0.3 -0.1
v 0 0.3 -0.2
v 0.1 0.3 -0.2
v 0 0.1 0.1
v 0.1 0.1 0.1
v -0.1 0.1 0
v 0 0.1 0
v 0.1 0.1 0
v 0.2 0.1 0
v -0.1 0.1 -0.1
v 0 0.1 -0.1
v 0.1 0.1 -0.1
v 0.2 0.1 -0.1
v 0 0.1 -0.2
v 0.1 0.1 -0.2
v 0 0.4 0.1
v 0.1 0.4 0.1
v -0.1 0.4 0
v 0 0.4 0
v 0.1 0.4 0
v 0.2 0.4 0
v -0.1 0.4 -0.1
v 0 0.4 -0.1
v 0.1 0.4 -0.1
v 0.2 0.4 -0.1
v 0 0.4 -0.2
v 0.1 0.4 -0.2

# faces
f 3/1/1 2/1/1 1/1/1
f 4/1/1 2/1/1 3/1/1
f 7/3/1 6/3/1 5/3/1
f 8/3/1 6/3/1 7/3/1
f 13/1/1 10/1/1 9/1/1
f 14/1/1 10/1/1 13/1/1
f 15/1/1 12/1/1 11/1/1
f 16/1/1 12/1/1 15/1/1
f 18/2/1 15/2/1 14/2/1
f 19/2/1 15/2/1 18/2/1
f 21/3/1 18/3/1 17/3/1
f 22/3/1 18/3/1 21/3/1
f 23/3/1 20/3/1 19/3/1
f 24/3/1 20/3/1 23/3/1
f 25/1/2 26/1/2 29/1/2
f 29/1/2 26/1/2 30/1/2
f 27/1/2 28/1/2 31/1/2
f 31/1/2 28/1/2 32/1/2
f 30/2/2 31/2/2 34/2/2
f 34/2/2 31/2/2 35/2/2
f 33/3/2 34/3/2 37/3/2
f 37/3/2 34/3/2 38/3/2
f 35/3/2 36/3/2 39/3/2
f 39/3/2 36/3/2 40/3/2
f 41/1/2 42/1/2 43/1/2
f 43/1/2 42/1/2 44/1/2
f 45/3/2 46/3/2 47/3/2
f 47/3/2 46/3/2 48/3/2
f 53/1/3 50/1/3 49/1/3
f 54/1/3 50/1/3 53/1/3
f 55/3/3 52/3/3 51/3/3
f 56/3/3 52/3/3 55/3/3
f 61/1/3 58/1/3 57/1/3
f 62/1/3 58/1/3 61/1/3
f 63/3/3 60/3/3 59/3/3
f 64/3/3 60/3/3 63/3/3
f 66/2/3 63/2/3 62/2/3
f 67/2/3 63/2/3 66/2/3
f 69/1/3 66/1/3 65/1/3
f 70/1/3 66/1/3 69/1/3
f 71/3/3 68/3/3 67/3/3
f 72/3/3 68/3/3 71/3/3
f 73/1/4 74/1/4 77/1/4
f 77/1/4 74/1/4 78/1/4
f 75/3/4 76/3/4 79/3/4
f 79/3/4 76/3/4 80/3/4
f 78/2/4 79/2/4 82/2/4
f 82/2/4 79/2/4 83/2/4
f 81/1/4 82/1/4 85/1/4
f 85/1/4 82/1/4 86/1/4
f 83/3/4 84/3/4 87/3/4
f 87/3/4 84/3/4 88/3/4
f 89/1/4 90/1/4 93/1/4
f 93/1/4 90/1/4 94/1/4
f 91/3/4 92/3/4 95/3/4
f 95/3/4 92/3/4 96/3/4
f 100/1/5 98/1/5 97/1/5
f 101/1/5 98/1/5 100/1/5
f 103/1/5 100/1/5 99/1/5
f 104/2/5 101/2/5 100/2/5
f 104/1/5 100/1/5 103/1/5
f 105/1/5 102/1/5 101/1/5
f 105/2/5 101/2/5 104/2/5
f 106/1/5 102/1/5 105/1/5
f 107/1/5 105/1/5 104/1/5
f 108/1/5 105/1/5 107/1/5
f 112/3/5 110/3/5 109/3/5
f 113/3/5 110/3/5 112/3/5
f 115/3/5 112/3/5 111/3/5
f 116/3/5 112/3/5 115/3/5
f 117/3/5 114/3/5 113/3/5
f 118/3/5 114/3/5 117/3/5
f 119/3/5 117/3/5 116/3/5
f 120/3/5 117/3/5 119/3/5
f 121/1/6 122/1/6 124/1/6
f 124/1/6 122/1/6 125/1/6
f 123/1/6 124/1/6 127/1/6
f 127/1/6 124/1/6 128/1/6
f 125/1/6 126/1/6 129/1/6
f 129/1/6 126/1/6 130/1/6
f 128/1/6 129/1/6 131/1/6
f 131/1/6 129/1/6 132/1/6
f 133/3/6 134/3/6 136/3/6
f 136/3/6 134/3/6 137/3/6
f 135/3/6 136/3/6 139/3/6
f 136/4/6 137/4/6 140/4/6
f 139/3/6 136/3/6 140/3/6
f 137/3/6 138/3/6 141/3/6
f 140/4/6 137/4/6 141/4/6
f 141/3/6 138/3/6 142/3/6
f 140/3/6 141/3/6 143/3/6
f 143/3/6 141/3/6 144/3/6
